<svg xmlns="http://www.w3.org/2000/svg" version="1.1" xmlns:xlink="http://www.w3.org/1999/xlink" xmlns:svgjs="http://svgjs.dev/svgjs" width="1440" height="560" preserveAspectRatio="none" viewBox="0 0 1440 560"><g mask="url(&quot;#SvgjsMask1001&quot;)" fill="none"><rect width="1440" height="560" x="0" y="0" fill="rgba(68, 51, 122, 1)"></rect><path d="M809.53 564.4C894.55 552.8 855.87 365.02 1081.7 355.3 1307.52 345.58 1482.78 178.38 1626.03 176.1" stroke="rgba(50, 38, 89, 1)" stroke-width="2"></path><path d="M196.85 630C360.65 588.46 408.64 151.42 664.65 142.06 920.65 132.7 898.55 212.06 1132.44 212.06 1366.34 212.06 1481.99 142.25 1600.24 142.06" stroke="rgba(50, 38, 89, 1)" stroke-width="2"></path><path d="M372.87 617.64C571.06 598.59 702.08 180.3 1038.13 179.81 1374.19 179.32 1526.09 422.29 1703.4 426.21" stroke="rgba(50, 38, 89, 1)" stroke-width="2"></path><path d="M284.09 652.63C441.12 611.72 485.57 189.99 729.88 180.85 974.19 171.71 952.77 250.85 1175.67 250.85 1398.57 250.85 1508.65 181.06 1621.46 180.85" stroke="rgba(50, 38, 89, 1)" stroke-width="2"></path><path d="M258.2 579.64C390.76 567.75 476.07 294.55 706.82 293.02 937.57 291.49 931.13 363.02 1155.45 363.02 1379.76 363.02 1490.56 293.23 1604.07 293.02" stroke="rgba(50, 38, 89, 1)" stroke-width="2"></path></g><defs><mask id="SvgjsMask1001"><rect width="1440" height="560" fill="#ffffff"></rect></mask></defs></svg>